{
  "asset": {
    "version": "2.0",
    "generator": "THREE.GLTFExporter"
  },
  "scenes": [
    {
      "name": "Scene",
      "nodes": [
        5
      ]
    }
  ],
  "scene": 0,
  "nodes": [
    {
      "matrix": [
        0.07830852846824561,
        0,
        0,
        0,
        0,
        0.07830852846824561,
        0,
        0,
        0,
        0,
        0.07830852846824561,
        0,
        0,
        0,
        0,
        1
      ],
      "name": "Sphere_Material_0",
      "extras": {
        "name": "Sphere_Material_0"
      },
      "mesh": 0
    },
    {
      "matrix": [
        101,
        0,
        0,
        0,
        0,
        -0.00001645498855129546,
        -100.99999999999865,
        0,
        0,
        100.99999999999865,
        -0.00001645498855129546,
        0,
        0,
        0,
        0,
        1
      ],
      "name": "Sphere",
      "extras": {
        "name": "Sphere"
      },
      "children": [
        0
      ]
    },
    {
      "name": "RootNode",
      "extras": {
        "name": "RootNode"
      },
      "children": [
        1
      ]
    },
    {
      "matrix": [
        0.009999999776482582,
        0,
        0,
        0,
        0,
        2.2204459996194763e-18,
        0.009999999776482582,
        0,
        0,
        -0.009999999776482582,
        2.2204459996194763e-18,
        0,
        0,
        0,
        0,
        1
      ],
      "name": "164f3ef3a5354d2d99363d985d381246fbx",
      "extras": {
        "name": "164f3ef3a5354d2d99363d985d381246.fbx"
      },
      "children": [
        2
      ]
    },
    {
      "matrix": [
        1,
        7.395570986446986e-32,
        -2.832769343193999e-16,
        0,
        -2.832769343193999e-16,
        4.440892098500626e-16,
        -1,
        0,
        7.395570986446986e-32,
        1,
        4.440892098500626e-16,
        0,
        0,
        0,
        0,
        1
      ],
      "name": "Sketchfab_model",
      "extras": {
        "name": "Sketchfab_model"
      },
      "children": [
        3
      ]
    },
    {
      "name": "jupiter.gltf",
      "children": [
        4
      ]
    }
  ],
  "bufferViews": [
    {
      "buffer": 0,
      "byteOffset": 0,
      "byteLength": 101508,
      "target": 34962,
      "byteStride": 12
    },
    {
      "buffer": 0,
      "byteOffset": 101508,
      "byteLength": 101508,
      "target": 34962,
      "byteStride": 12
    },
    {
      "buffer": 0,
      "byteOffset": 203016,
      "byteLength": 67672,
      "target": 34962,
      "byteStride": 8
    },
    {
      "buffer": 0,
      "byteOffset": 270688,
      "byteLength": 191832,
      "target": 34963
    }
  ],
  "buffers": [
    {
      "byteLength": 462520,
      "uri": "data:application/octet-stream;base64,"
    }
  ],
  "accessors": [
    {
      "bufferView": 0,
      "componentType": 5126,
      "count": 8459,
      "max": [
        1,
        1,
        1
      ],
      "min": [
        -1,
        -1,
        -1
      ],
      "type": "VEC3"
    },
    {
      "bufferView": 1,
      "componentType": 5126,
      "count": 8459,
      "max": [
        128.5580291748047,
        128.55801391601562,
        128.55796813964844
      ],
      "min": [
        -128.5579071044922,
        -128.55792236328125,
        -128.55796813964844
      ],
      "type": "VEC3"
    },
    {
      "bufferView": 2,
      "componentType": 5126,
      "count": 8459,
      "max": [
        1,
        1
      ],
      "min": [
        0,
        0
      ],
      "type": "VEC2"
    },
    {
      "bufferView": 3,
      "componentType": 5125,
      "count": 47958,
      "max": [
        8458
      ],
      "min": [
        0
      ],
      "type": "SCALAR"
    }
  ],
  "materials": [
    {
      "pbrMetallicRoughness": {
        "metallicFactor": 0,
        "roughnessFactor": 1,
        "baseColorTexture": {
          "index": 0,
          "texCoord": 0
        }
      },
      "doubleSided": true,
      "name": "Material"
    }
  ],
  "textures": [
    {
      "sampler": 0,
      "source": 0,
      "name": "Material_baseColor"
    }
  ],
  "samplers": [
    {
      "magFilter": 9729,
      "minFilter": 9987,
      "wrapS": 10497,
      "wrapT": 10497
    }
  ],
  "images": [
    {
      "mimeType": "image/jpeg",
      "uri": "data:image/jpeg;base64,"
    }
  ],
  "meshes": [
    {
      "primitives": [
        {
          "mode": 4,
          "attributes": {
            "NORMAL": 0,
            "POSITION": 1,
            "TEXCOORD_0": 2
          },
          "indices": 3,
          "material": 0
        }
      ]
    }
  ]
}